<?xml version="1.0" standalone="no"?>
<!DOCTYPE svg PUBLIC "-//W3C//DTD SVG 20010904//EN"
 "http://www.w3.org/TR/2001/REC-SVG-20010904/DTD/svg10.dtd">
<svg version="1.0" xmlns="http://www.w3.org/2000/svg"
 width="256.000000pt" height="256.000000pt" viewBox="0 0 256.000000 256.000000"
 preserveAspectRatio="xMidYMid meet">

<g transform="translate(0.000000,256.000000) scale(0.100000,-0.100000)"
fill="#000000" stroke="none">
<path d="M1074 1686 c-61 -28 -124 -83 -165 -143 -28 -40 -33 -43 -74 -43 -56
0 -91 -13 -105 -40 -18 -34 -4 -58 40 -65 22 -4 40 -8 40 -9 0 -1 -10 -29 -22
-61 -17 -45 -22 -83 -23 -152 0 -86 2 -94 30 -134 17 -23 50 -53 75 -66 43
-23 52 -24 243 -23 l199 2 32 -31 c46 -44 101 -64 176 -64 70 0 154 29 186 64
16 18 18 18 54 -11 53 -42 85 -52 165 -53 113 -1 207 53 258 148 17 31 22 58
22 115 0 84 -10 109 -83 203 -24 32 -42 60 -40 62 2 2 39 8 82 14 120 15 171
62 171 159 0 69 -21 102 -83 133 -87 43 -229 10 -294 -69 l-23 -29 -20 36
c-47 84 -184 105 -294 46 -59 -32 -95 -75 -113 -134 -13 -40 -14 -41 -58 -42
-66 -1 -93 -12 -110 -42 -24 -43 1 -60 102 -65 82 -4 83 -5 110 -41 15 -20 50
-64 78 -99 48 -61 50 -66 50 -125 0 -50 -5 -70 -24 -98 -34 -50 -86 -73 -149
-66 -42 4 -56 10 -84 41 -62 67 -39 163 53 227 56 38 68 59 48 87 -30 43 -106
20 -172 -52 -52 -57 -73 -103 -75 -167 l-2 -49 -153 0 c-165 0 -211 10 -232
51 -19 35 -7 174 20 237 l23 52 56 0 c100 0 219 18 261 40 104 53 116 194 21
257 -47 32 -128 31 -197 -1z m135 -90 c7 -8 11 -27 9 -43 -4 -40 -41 -54 -134
-51 l-76 3 22 28 c51 64 149 99 179 63z m585 4 c20 -7 26 -17 26 -39 0 -47
-30 -61 -127 -61 -92 0 -99 7 -61 55 37 48 106 67 162 45z m414 -6 c12 -8 22
-26 22 -39 0 -40 -35 -55 -127 -55 -73 0 -83 2 -83 18 0 22 45 67 80 81 38 15
83 13 108 -5z m-334 -204 l51 0 70 -86 c39 -47 75 -95 82 -107 17 -30 16 -112
-2 -146 -48 -94 -175 -120 -245 -50 -27 27 -30 37 -30 91 0 58 2 62 43 102 24
22 56 49 70 59 16 11 27 27 27 40 0 57 -64 63 -138 14 l-49 -34 -42 54 c-22
29 -41 55 -41 57 0 8 64 14 109 10 24 -2 67 -4 95 -4z"/>
<path d="M468 1410 c-31 -17 -38 -17 -48 -5 -19 23 -67 19 -83 -7 -8 -13 -38
-83 -67 -156 -58 -143 -59 -164 -9 -170 36 -4 62 30 104 136 47 117 98 161
135 117 11 -13 7 -30 -19 -96 -52 -135 -45 -149 77 -149 95 0 122 10 122 45 0
29 -26 45 -74 45 -20 0 -36 1 -36 3 0 1 14 38 30 80 37 97 37 111 1 148 -35
35 -79 38 -133 9z"/>
</g>
</svg>